#!OML:ASF F:\twosubjects\two\wednesday\Session 1\rory1.ASF
:FULLY-SPECIFIED
:DEGREES
17
root 2.15633 18.0059 -15.1344 2.55503 -3.28953 6.20583
lowerback 3.35773 -0.551668 -6.24891
upperback 1.84089 -0.916755 -1.09731
thorax 0.0956278 -0.498724 2.40047
lowerneck -14.2816 -0.333926 -1.25592
upperneck 15.5702 0.050202 -1.28043
head 7.12455 -0.169346 -0.204987
rclavicle -3.75206e-015 -5.36719e-015
rhumerus -51.5882 -19.4966 -64.0822
rradius 25.7996
rwrist 7.54142
rhand -12.3829 35.3842
rfingers 7.12502
rthumb 13.688 5.85439
lclavicle -3.75206e-015 -5.36719e-015
lhumerus -43.5614 -24.2304 66.648
lradius 86.7552
lwrist 9.12884
lhand -28.4153 7.34172
lfingers 7.12502
lthumb -1.78699 37.314
rfemur -27.1484 0.962293 13.6718
rtibia 68.509
rfoot -3.49834 -4.81904
rtoes -7.42529
lfemur -10.2061 -3.79122 -28.9898
ltibia 25.6941
lfoot -14.8485 -3.34508
ltoes -11.2025
18
root 2.15651 17.9941 -14.9763 2.56196 -2.9088 6.43977
lowerback 3.50538 -0.6124 -6.49831
upperback 1.81119 -1.0181 -1.15102
thorax -0.00457666 -0.547191 2.48972
lowerneck -14.0066 -0.332825 -0.862703
upperneck 15.4574 -0.0026524 -1.49012
head 7.03952 -0.188434 -0.341999
rclavicle -2.5842e-015 4.17448e-015
rhumerus -52.2921 -20.2208 -63.3119
rradius 25.5098
rwrist 8.14851
rhand -12.8353 35.5681
rfingers 7.12502
rthumb 13.252 6.00933
lclavicle -2.5842e-015 4.17448e-015
lhumerus -43.8125 -24.4672 66.8901
lradius 87.138
lwrist 9.69739
lhand -28.4085 7.22681
lfingers 7.12502
lthumb -1.78048 37.1991
rfemur -28.111 0.882938 13.4755
rtibia 67.9346
rfoot -4.63278 -5.6521
rtoes -7.74842
lfemur -9.70953 -3.80577 -29.3098
ltibia 25.7899
lfoot -15.1582 -3.55441
ltoes -12.3099
19
root 2.15602 17.9871 -14.8164 2.63102 -2.50927 6.63097
lowerback 3.58512 -0.743919 -6.79745
upperback 1.67583 -1.21516 -1.13045
thorax -0.163464 -0.639542 2.68673
lowerneck -13.3976 -0.386401 -0.923059
upperneck 15.2247 -0.102288 -1.34153
head 6.85811 -0.222528 -0.291585
rclavicle -2.93953e-014 -1.0138e-014
rhumerus -53.0463 -20.8402 -62.2906
rradius 25.099
rwrist 9.1179
rhand -13.2826 35.6679
rfingers 7.12502
rthumb 12.8208 6.08164
lclavicle -2.93953e-014 -1.0138e-014
lhumerus -44.2948 -24.3249 67.2148
lradius 87.4475
lwrist 9.49693
lhand -27.406 5.85608
lfingers 7.12502
lthumb -0.812258 35.8343
rfemur -29.0707 0.849858 13.3245
rtibia 67.1471
rfoot -5.75882 -6.52967
rtoes -6.33386
lfemur -9.27244 -3.62466 -29.5749
ltibia 25.9464
lfoot -15.1445 -3.97062
ltoes -10.7003
20
root 2.15253 17.9643 -14.6601 2.69263 -2.12862 6.84744
lowerback 3.66111 -0.827906 -7.09392
upperback 1.61867 -1.34567 -1.12174
thorax -0.244495 -0.702186 2.86736
lowerneck -13.3388 -0.473107 -1.17368
upperneck 15.3909 -0.231807 -0.976223
head 6.90197 -0.268155 -0.145386
rclavicle -1.4238e-014 -2.72335e-014
rhumerus -53.5946 -21.416 -61.3882
rradius 24.5674
rwrist 9.77109
rhand -13.5243 34.9252
rfingers 7.12502
rthumb 12.5878 5.32449
lclavicle -1.4238e-014 -2.72335e-014
lhumerus -44.3259 -24.228 67.4062
lradius 87.5022
lwrist 9.19781
lhand -29.8061 6.89523
lfingers 7.12502
lthumb -3.13025 36.852
rfemur -29.9979 0.799744 13.1595
rtibia 66.1835
rfoot -6.88099 -7.39551
rtoes -4.99844
lfemur -8.80778 -3.42651 -29.877
ltibia 26.0278
lfoot -15.3033 -4.24235
ltoes -10.4482
21
root 2.14503 17.9454 -14.5144 2.84585 -1.8823 6.68244
lowerback 3.77239 -0.833146 -7.0361
upperback 1.60434 -1.36035 -1.02595
thorax -0.319235 -0.706783 2.937
lowerneck -13.3139 -0.504077 -0.819715
upperneck 15.3811 -0.30468 -1.22088
head 6.89322 -0.303891 -0.289541
rclavicle 1.50828e-014 6.95746e-015
rhumerus -53.9465 -22.0254 -60.676
rradius 24.0105
rwrist 10.0691
rhand -13.8133 34.3211
rfingers 7.12502
rthumb 12.3091 4.70342
lclavicle 1.50828e-014 6.95746e-015
lhumerus -44.1306 -24.4321 67.4863
lradius 87.5562
lwrist 9.71689
lhand -29.7432 6.74443
lfingers 7.12502
lthumb -3.06945 36.7021
rfemur -31.0086 1.03117 13.4475
rtibia 64.9693
rfoot -7.65022 -8.16892
rtoes -2.00368
lfemur -8.41806 -3.29425 -29.7386
ltibia 25.9173
lfoot -15.6533 -4.27152
ltoes -11.5533
22
root 2.14342 17.9511 -14.3677 3.09298 -1.43428 6.47973
lowerback 3.80474 -0.971445 -6.92527
upperback 1.60763 -1.5417 -0.868771
thorax -0.314064 -0.79756 3.0443
lowerneck -13.121 -0.427895 -0.452228
upperneck 15.0453 -0.215373 -1.60771
head 6.75062 -0.270668 -0.464121
rclavicle -6.38596e-015 -2.18663e-015
rhumerus -54.162 -22.9584 -59.6254
rradius 23.358
rwrist 11.0063
rhand -13.7684 34.4181
rfingers 7.12502
rthumb 12.3524 4.80298
lclavicle -6.38596e-015 -2.18663e-015
lhumerus -43.8923 -24.62 67.5736
lradius 87.5966
lwrist 10.5569
lhand -28.312 6.62654
lfingers 7.12502
lthumb -1.68722 36.5996
rfemur -31.9062 1.09677 13.7496
rtibia 63.4378
rfoot -8.06164 -8.72358
rtoes -0.536109
lfemur -8.02211 -3.33933 -29.5296
ltibia 25.6886
lfoot -15.8702 -4.51446
ltoes -10.9604
23
root 2.14534 17.9546 -14.2042 3.22627 -0.868086 7.01267
lowerback 3.73669 -1.1167 -7.42205
upperback 1.6218 -1.74559 -0.962843
thorax -0.226664 -0.904292 3.22882
lowerneck -12.7166 -0.406381 -0.355525
upperneck 14.6653 -0.209515 -1.63897
head 6.55848 -0.260936 -0.486583
rclavicle -5.1361e-014 -1.49089e-014
rhumerus -54.7205 -24.0545 -58.3217
rradius 22.851
rwrist 12.4324
rhand -13.2481 34.5797
rfingers 7.12502
rthumb 12.8541 4.99552
lclavicle -5.1361e-014 -1.49089e-014
lhumerus -43.6116 -25.0647 67.6555
lradius 87.6014
lwrist 11.3146
lhand -27.8571 7.42192
lfingers 7.12502
lthumb -1.24791 37.398
rfemur -32.399 0.895231 13.1566
rtibia 61.6343
rfoot -8.40651 -9.00587
rtoes -2.66407
lfemur -7.27399 -3.62259 -30.1608
ltibia 25.253
lfoot -15.925 -4.70105
ltoes -9.96761
24
root 2.14049 17.9504 -14.0385 3.28161 -0.512252 7.48832
lowerback 3.73511 -1.07932 -7.90072
upperback 1.67802 -1.70947 -1.1058
thorax -0.160228 -0.891709 3.34558
lowerneck -12.854 -0.535517 -0.272948
upperneck 14.8514 -0.43507 -1.41952
head 6.64022 -0.347755 -0.452051
rclavicle -2.51463e-014 2.38542e-015
rhumerus -55.3785 -25.0287 -57.3324
rradius 22.4902
rwrist 13.3564
rhand -12.7733 34.2825
rfingers 7.12502
rthumb 13.3117 4.72767
lclavicle -2.51463e-014 2.38542e-015
lhumerus -43.1698 -25.6982 67.7348
lradius 87.5926
lwrist 11.7605
lhand -27.481 8.55535
lfingers 7.12502
lthumb -0.884619 38.5333
rfemur -32.6714 0.863665 12.6193
rtibia 59.5686
rfoot -8.68097 -9.31273
rtoes -5.10017
lfemur -6.29746 -3.94422 -30.7457
ltibia 24.5278
lfoot -15.8857 -4.46272
ltoes -8.50363
25
root 2.13679 17.9715 -13.8778 3.39977 -0.20477 7.42925
lowerback 3.69839 -1.15847 -7.95034
upperback 1.73314 -1.80889 -0.985713
thorax -0.0650841 -0.947074 3.49851
lowerneck -13.1124 -0.544378 -0.461691
upperneck 15.1477 -0.4586 -1.10111
head 6.78135 -0.344446 -0.323044
rclavicle 1.46107e-014 9.74045e-015
rhumerus -55.5522 -25.7294 -56.4509
rradius 21.9018
rwrist 14.1892
rhand -12.2279 33.4904
rfingers 7.12502
rthumb 13.8373 3.97065
lclavicle 1.46107e-014 9.74045e-015
lhumerus -43.0709 -25.6106 67.9945
lradius 87.6255
lwrist 11.6506
lhand -29.3789 7.65877
lfingers 7.12502
lthumb -2.7176 37.6212
rfemur -32.9793 0.899207 12.666
rtibia 57.3446
rfoot -8.87725 -9.2708
rtoes -3.26745
lfemur -5.5048 -4.29884 -30.7316
ltibia 23.874
lfoot -15.9621 -4.09128
ltoes -7.23684
26
root 2.13793 18.0048 -13.7159 3.60194 0.144788 7.26974
lowerback 3.55523 -1.23839 -7.80927
upperback 1.77921 -1.89376 -0.873179
thorax 0.0718729 -0.995368 3.53382
lowerneck -12.8046 -0.557758 -0.323306
upperneck 14.7816 -0.497956 -1.17442
head 6.60959 -0.359389 -0.370523
rclavicle 9.44227e-015 -2.18663e-015
rhumerus -55.9178 -26.822 -55.1666
rradius 21.2778
rwrist 15.5356
rhand -11.9001 33.1829
rfingers 7.12502
rthumb 14.1533 3.68497
lclavicle 9.44227e-015 -2.18663e-015
lhumerus -43.0411 -25.5961 68.1835
lradius 87.6885
lwrist 11.4578
lhand -29.335 7.43978
lfingers 7.12502
lthumb -2.67526 37.4028
rfemur -33.4209 1.22528 12.7311
rtibia 54.9951
rfoot -9.03508 -9.22465
rtoes 0.24127
lfemur -4.87805 -4.32474 -30.5839
ltibia 23.2613
lfoot -15.9044 -4.03669
ltoes -8.10886
